# This file uses centimeters as units for non-parametric coordinates.

mtllib topblock.mtl
g default
v -36.427101 1.852183 36.427101
v 36.427101 1.852183 36.427101
v -2.995886 54.191219 2.995860
v 2.995888 54.191219 2.995860
v -2.995886 54.191219 -2.995868
v 2.995888 54.191219 -2.995868
v -36.427101 1.852183 -36.427101
v 36.427101 1.852183 -36.427101
vt 0.375000 0.000000
vt 0.625000 0.000000
vt 0.375000 0.250000
vt 0.625000 0.250000
vt 0.375000 0.500000
vt 0.625000 0.500000
vt 0.375000 0.750000
vt 0.625000 0.750000
vt 0.375000 1.000000
vt 0.625000 1.000000
vt 0.875000 0.000000
vt 0.875000 0.250000
vt 0.125000 0.000000
vt 0.125000 0.250000
vn 0.000000 0.538303 0.842752
vn 0.000000 0.538303 0.842752
vn 0.000000 0.538302 0.842752
vn 0.000000 0.538302 0.842752
vn 0.000000 1.000000 0.000000
vn 0.000000 1.000000 0.000000
vn 0.000000 1.000000 0.000000
vn 0.000000 1.000000 0.000000
vn 0.000000 0.538302 -0.842752
vn 0.000000 0.538302 -0.842752
vn 0.000000 0.538302 -0.842752
vn 0.000000 0.538302 -0.842752
vn 0.000000 -1.000000 0.000000
vn 0.000000 -1.000000 0.000000
vn 0.000000 -1.000000 0.000000
vn 0.000000 -1.000000 0.000000
vn 0.842752 0.538302 0.000000
vn 0.842752 0.538302 0.000000
vn 0.842752 0.538302 0.000000
vn 0.842752 0.538302 0.000000
vn -0.842752 0.538302 0.000000
vn -0.842752 0.538302 0.000000
vn -0.842752 0.538302 0.000000
vn -0.842752 0.538302 0.000000
s off
g pCube1
usemtl initialShadingGroup
f 1/1/1 2/2/2 4/4/3 3/3/4
f 3/3/5 4/4/6 6/6/7 5/5/8
f 5/5/9 6/6/10 8/8/11 7/7/12
f 7/7/13 8/8/14 2/10/15 1/9/16
f 2/2/17 8/11/18 6/12/19 4/4/20
f 7/13/21 1/1/22 3/3/23 5/14/24
