# This file uses centimeters as units for non-parametric coordinates.

mtllib wallblock.mtl
g default
v -8.648789 2.135835 89.497998
v 8.648789 2.135835 89.497998
v -8.648789 61.489515 89.497998
v 8.648789 61.489515 89.497998
v -8.648789 61.489515 -89.497998
v 8.648789 61.489515 -89.497998
v -8.648789 2.135835 -89.497998
v 8.648789 2.135835 -89.497998
vt 0.000975 0.006722
vt 1.748983 0.006719
vt 1.748966 0.586345
vt 0.000959 0.586348
vt 0.003536 0.012042
vt 1.751544 0.012042
vt 1.751544 0.591668
vt 0.003536 0.591668
vt 0.009195 0.780621
vt 0.009195 0.611699
vt 1.757203 0.611699
vt 1.757203 0.780621
vt 0.011097 0.782896
vt 0.011558 0.613975
vt 1.759558 0.618747
vt 1.759097 0.787668
vt 1.769055 0.012018
vt 1.937976 0.012018
vt 1.937976 0.591644
vt 1.769055 0.591644
vt 1.761746 0.013728
vt 1.930662 0.012306
vt 1.935541 0.591911
vt 1.766625 0.593333
vn 0.000000 0.000000 1.000000
vn 0.000000 0.000000 1.000000
vn 0.000000 0.000000 1.000000
vn 0.000000 0.000000 1.000000
vn 0.000000 1.000000 0.000000
vn 0.000000 1.000000 0.000000
vn 0.000000 1.000000 0.000000
vn 0.000000 1.000000 0.000000
vn 0.000000 0.000000 -1.000000
vn 0.000000 0.000000 -1.000000
vn 0.000000 0.000000 -1.000000
vn 0.000000 0.000000 -1.000000
vn 0.000000 -1.000000 0.000000
vn 0.000000 -1.000000 0.000000
vn 0.000000 -1.000000 0.000000
vn 0.000000 -1.000000 0.000000
vn 1.000000 0.000000 0.000000
vn 1.000000 0.000000 0.000000
vn 1.000000 0.000000 0.000000
vn 1.000000 0.000000 0.000000
vn -1.000000 0.000000 0.000000
vn -1.000000 0.000000 0.000000
vn -1.000000 0.000000 0.000000
vn -1.000000 0.000000 0.000000
s off
g pCube1
usemtl lambert2SG
f 1/17/1 2/18/2 4/19/3 3/20/4
f 3/9/5 4/10/6 6/11/7 5/12/8
f 5/21/9 6/22/10 8/23/11 7/24/12
f 7/13/13 8/14/14 2/15/15 1/16/16
f 2/1/17 8/2/18 6/3/19 4/4/20
f 7/5/21 1/6/22 3/7/23 5/8/24
